{
	"asset":{
		"generator":"Khronos glTF Blender I/O v5.2.39",
		"version":"2.0"
	},
	"scene":0,
	"scenes":[
		{
			"name":"Scene",
			"nodes":[
				0
			]
		}
	],
	"nodes":[
		{
			"mesh":0,
			"name":"bat"
		}
	],
	"materials":[
		{
			"doubleSided":true,
			"name":"Material",
			"pbrMetallicRoughness":{
				"baseColorFactor":[
					0.292911559343338,
					0.8000156879425049,
					0.2190791368484497,
					1
				],
				"metallicFactor":0.31847134232521057,
				"roughnessFactor":0.640127420425415
			}
		}
	],
	"meshes":[
		{
			"name":"Cube",
			"primitives":[
				{
					"attributes":{
						"POSITION":0,
						"NORMAL":1,
						"TEXCOORD_0":2
					},
					"indices":3,
					"material":0
				}
			]
		}
	],
	"accessors":[
		{
			"bufferView":0,
			"componentType":5126,
			"count":185,
			"max":[
				0.12468946725130081,
				1.436870813369751,
				0.0639083981513977
			],
			"min":[
				-0.124689482152462,
				0.004985153675079346,
				-0.03052852489054203
			],
			"type":"VEC3"
		},
		{
			"bufferView":1,
			"componentType":5126,
			"count":185,
			"type":"VEC3"
		},
		{
			"bufferView":2,
			"componentType":5126,
			"count":185,
			"type":"VEC2"
		},
		{
			"bufferView":3,
			"componentType":5123,
			"count":948,
			"type":"SCALAR"
		}
	],
	"bufferViews":[
		{
			"buffer":0,
			"byteLength":2220,
			"byteOffset":0,
			"target":34962
		},
		{
			"buffer":0,
			"byteLength":2220,
			"byteOffset":2220,
			"target":34962
		},
		{
			"buffer":0,
			"byteLength":1480,
			"byteOffset":4440,
			"target":34962
		},
		{
			"buffer":0,
			"byteLength":1896,
			"byteOffset":5920,
			"target":34963
		}
	],
	"buffers":[
		{
			"byteLength":7816,
			"uri":"bat.bin"
		}
	]
}
